<?xml version="1.0" encoding="utf-8"?>
<!-- Generator: Adobe Illustrator 24.2.3, SVG Export Plug-In . SVG Version: 6.00 Build 0)  -->
<svg version="1.1" id="Layer_1" xmlns="http://www.w3.org/2000/svg" xmlns:xlink="http://www.w3.org/1999/xlink" x="0px" y="0px"
	 viewBox="0 0 499.9 183.3" style="enable-background:new 0 0 499.9 183.3;" xml:space="preserve">
<style type="text/css">
	.st0{fill:#0088CB;}
</style>
<g>
	<path class="st0" d="M374.9,39l-23.4,60.7c-5.3,14.1-9.1,24.4-11.9,34h-0.3c-3-10.2-6.7-20.8-11.6-34.2L305.1,39h-8.6l-7.7,105.2
		h7.3l3.3-48.4c1.2-17.5,2-35.8,2.2-48.1h0.5c3.1,11.6,7.7,24.2,13.6,40.6l20.8,55.9h5.2L363.8,87c5.9-15.6,10.3-27.8,14-39.2h0.5
		c-0.1,11.4,1.1,30.8,2.2,46.5l3.1,50h7.4L383.8,39H374.9z"/>
	<path class="st0" d="M432.4,38.3c-9.8,0-18.9,0.9-26.8,2.2v103.7c7.5,0.8,15.1,0.9,23.3,0.9c20.3,0,36.1-5.9,45.4-16.1
		c9.5-10.5,13.7-24.5,13.7-40c0-15.9-4.7-27.6-13.1-36.4C466.1,43.4,451.6,38.3,432.4,38.3z M429.9,138.8c-6.6,0-12.7-0.1-17-0.8
		v-92c4.5-0.8,10.9-1.6,19.1-1.6c33.7,0,48.6,18.3,48.4,45C480.3,119.9,463.6,138.8,429.9,138.8z"/>
	<path class="st0" d="M68.9,50.2c7.7,0,15,1.5,20.6,4.2l1.6,0.8l4.1-14l-1.1-0.6c-2.2-1.1-10.5-4.9-25.7-4.9
		C34.7,35.8,12,58.6,12,92.6c0,33.3,21,54.7,53.5,54.7c13.4,0,23.5-2.7,28.5-5.2l1.1-0.5l-3.6-13.7l-1.6,0.8
		c-5.4,2.6-13.6,4.2-21.5,4.2c-24.4,0-38.9-15.3-38.9-40.8C29.3,66.3,44.5,50.2,68.9,50.2z"/>
	<path class="st0" d="M164.9,123.7V67.2h-16.7v47.9c0,2.3-0.4,4.6-1.1,6.5c-2.2,5.3-7.9,11.6-16.7,11.6c-10.5,0-15.4-7.2-15.4-22.5
		V67.2H98.1v45.7c0,31.2,19.3,34.6,27.6,34.6c12.7,0,20.2-6.6,24.1-11.5l0.6,9.8h15.2l-0.1-1.6C165,138.8,164.9,132.3,164.9,123.7z"
		/>
	<path class="st0" d="M217.2,82.3v-16L216,66c-1.5-0.4-2.7-0.5-4.3-0.5c-8.4,0-15.9,4.9-20.2,12.7l-0.3-11h-15.1l0.1,1.6
		c0.4,6.5,0.6,13.7,0.6,23.5v53.5h16.6V104c0-2.2,0.3-4.4,0.6-6.1c1.8-10.1,8.3-16.4,16.9-16.4c1.7,0,3,0.1,4.4,0.4L217.2,82.3z"/>
	<path class="st0" d="M250,65.5c-21.8,0-36.9,17.4-36.9,42.2c0,24.1,15.2,39.6,38.7,39.6c12.5,0,20.9-2.6,25.8-4.8l1.1-0.5l-3-12.8
		l-1.6,0.7c-4.6,2-10.3,3.8-20.3,3.8c-7.1,0-23.3-2.3-24.4-23.2h52.9l0.2-1.9c0.2-1.4,0.4-3.4,0.4-5.9
		C282.7,85.5,274.2,65.5,250,65.5z M248.9,78.3c5,0,9.1,1.5,12,4.5c4.5,4.6,5.4,11.4,5.5,14.8h-36.9
		C230.9,89.8,236.3,78.3,248.9,78.3z"/>
</g>
</svg>
